<?xml version="1.0" encoding="utf-8"?>
<!-- Generator: Adobe Illustrator 21.0.0, SVG Export Plug-In . SVG Version: 6.00 Build 0)  -->
<svg version="1.1" id="Layer_1" xmlns="http://www.w3.org/2000/svg" xmlns:xlink="http://www.w3.org/1999/xlink" x="0px" y="0px"
	 viewBox="0 0 87.7 89.6" style="enable-background:new 0 0 87.7 89.6;" xml:space="preserve">
<style type="text/css">
	.st0{fill:#808000;}
	.st1{fill:#FA8072;}
	.st2{fill:#FFD700;}
	.st3{fill:#35659D;}
</style>
<circle class="st0" cx="8" cy="8.4" r="5.5"/>
<circle class="st1" cx="20" cy="8.4" r="5.5"/>
<circle class="st0" cx="32" cy="8.4" r="5.5"/>
<circle class="st1" cx="44" cy="8.4" r="5.5"/>
<circle class="st0" cx="56" cy="8.4" r="5.5"/>
<circle class="st1" cx="68" cy="8.4" r="5.5"/>
<circle class="st0" cx="80" cy="8.4" r="5.5"/>
<circle class="st2" cx="8" cy="20.4" r="5.5"/>
<circle class="st3" cx="20" cy="20.4" r="5.5"/>
<circle class="st2" cx="32" cy="20.4" r="5.5"/>
<circle class="st3" cx="44" cy="20.4" r="5.5"/>
<circle class="st2" cx="56" cy="20.4" r="5.5"/>
<circle class="st3" cx="68" cy="20.4" r="5.5"/>
<circle class="st2" cx="80" cy="20.4" r="5.5"/>
<circle class="st0" cx="8" cy="32.4" r="5.5"/>
<circle class="st1" cx="20" cy="32.4" r="5.5"/>
<circle class="st0" cx="32" cy="32.4" r="5.5"/>
<circle class="st1" cx="44" cy="32.4" r="5.5"/>
<circle class="st0" cx="56" cy="32.4" r="5.5"/>
<circle class="st1" cx="68" cy="32.4" r="5.5"/>
<circle class="st0" cx="80" cy="32.4" r="5.5"/>
<circle class="st2" cx="8" cy="44.4" r="5.5"/>
<circle class="st3" cx="20" cy="44.4" r="5.5"/>
<circle class="st2" cx="32" cy="44.4" r="5.5"/>
<circle class="st3" cx="44" cy="44.4" r="5.5"/>
<circle class="st2" cx="56" cy="44.4" r="5.5"/>
<circle class="st3" cx="68" cy="44.4" r="5.5"/>
<circle class="st2" cx="80" cy="44.4" r="5.5"/>
<circle class="st0" cx="8" cy="56.4" r="5.5"/>
<circle class="st1" cx="20" cy="56.4" r="5.5"/>
<circle class="st0" cx="32" cy="56.4" r="5.5"/>
<circle class="st1" cx="44" cy="56.4" r="5.5"/>
<circle class="st0" cx="56" cy="56.4" r="5.5"/>
<circle class="st1" cx="68" cy="56.4" r="5.5"/>
<circle class="st0" cx="80" cy="56.4" r="5.5"/>
<circle class="st2" cx="8" cy="68.4" r="5.5"/>
<circle class="st3" cx="20" cy="68.4" r="5.5"/>
<circle class="st2" cx="32" cy="68.4" r="5.5"/>
<circle class="st3" cx="44" cy="68.4" r="5.5"/>
<circle class="st2" cx="56" cy="68.4" r="5.5"/>
<circle class="st3" cx="68" cy="68.4" r="5.5"/>
<circle class="st2" cx="80" cy="68.4" r="5.5"/>
<circle class="st0" cx="8" cy="80.4" r="5.5"/>
<circle class="st1" cx="20" cy="80.4" r="5.5"/>
<circle class="st0" cx="32" cy="80.4" r="5.5"/>
<circle class="st1" cx="44" cy="80.4" r="5.5"/>
<circle class="st0" cx="56" cy="80.4" r="5.5"/>
<circle class="st1" cx="68" cy="80.4" r="5.5"/>
<circle class="st0" cx="80" cy="80.4" r="5.5"/>
</svg>
